D:\PredSim\limbproperties\Ratio75_uphill10\Ratio75_uphill10_IK_walking_1.5.mot
version=1
nRows=4
nColumns=124
inDegrees=yes
endheader
                time	         pelvis_tilt	         pelvis_list	     pelvis_rotation	           pelvis_tx	           pelvis_ty	           pelvis_tz	       hip_flexion_r	     hip_adduction_r	      hip_rotation_r	        knee_angle_r	       ankle_angle_r	    subtalar_angle_r	         mtp_angle_r	       hip_flexion_l	     hip_adduction_l	      hip_rotation_l	        knee_angle_l	       ankle_angle_l	    subtalar_angle_l	         mtp_angle_l	    lumbar_extension	      lumbar_bending	     lumbar_rotation	          arm_flex_r	           arm_add_r	           arm_rot_r	        elbow_flex_r	          arm_flex_l	           arm_add_l	           arm_rot_l	        elbow_flex_l	glut_med1_r/activation	glut_med2_r/activation	glut_med3_r/activation	glut_min1_r/activation	glut_min2_r/activation	glut_min3_r/activation	semimem_r/activation	semiten_r/activation	bifemlh_r/activation	bifemsh_r/activation	    sar_r/activation	add_long_r/activation	add_brev_r/activation	add_mag1_r/activation	add_mag2_r/activation	add_mag3_r/activation	    tfl_r/activation	   pect_r/activation	   grac_r/activation	glut_max1_r/activation	glut_max2_r/activation	glut_max3_r/activation	iliacus_r/activation	  psoas_r/activation	quad_fem_r/activation	    gem_r/activation	   peri_r/activation	rect_fem_r/activation	vas_med_r/activation	vas_int_r/activation	vas_lat_r/activation	med_gas_r/activation	lat_gas_r/activation	 soleus_r/activation	tib_post_r/activation	flex_dig_r/activation	flex_hal_r/activation	tib_ant_r/activation	per_brev_r/activation	per_long_r/activation	per_tert_r/activation	ext_dig_r/activation	ext_hal_r/activation	glut_med1_l/activation	glut_med2_l/activation	glut_med3_l/activation	glut_min1_l/activation	glut_min2_l/activation	glut_min3_l/activation	semimem_l/activation	semiten_l/activation	bifemlh_l/activation	bifemsh_l/activation	    sar_l/activation	add_long_l/activation	add_brev_l/activation	add_mag1_l/activation	add_mag2_l/activation	add_mag3_l/activation	    tfl_l/activation	   pect_l/activation	   grac_l/activation	glut_max1_l/activation	glut_max2_l/activation	glut_max3_l/activation	iliacus_l/activation	  psoas_l/activation	quad_fem_l/activation	    gem_l/activation	   peri_l/activation	rect_fem_l/activation	vas_med_l/activation	vas_int_l/activation	vas_lat_l/activation	med_gas_l/activation	lat_gas_l/activation	 soleus_l/activation	tib_post_l/activation	flex_dig_l/activation	flex_hal_l/activation	tib_ant_l/activation	per_brev_l/activation	per_long_l/activation	per_tert_l/activation	ext_dig_l/activation	ext_hal_l/activation	 ercspn_r/activation	 ercspn_l/activation	 intobl_r/activation	 intobl_l/activation	 extobl_r/activation	 extobl_l/activation	
          0.48694902	        -19.65299032	          4.68304354	         -1.53453251	          0.73042353	          0.86454101	          0.00273688	         -2.70473160	         -2.99038989	          8.90194867	        -10.90895250	          6.38888093	         15.64034523	         17.52660652	         48.18877865	          5.32881431	         -4.18870620	        -15.99032327	          7.90384391	         -6.08759490	          0.16009127	          2.47388613	         -5.01254271	          5.45548102	          2.92604306	        -13.48054405	         19.32762098	         41.64305657	          0.47015785	        -14.41248640	          9.52830028	         37.47194107	          0.14169364	          0.13049369	          0.12477800	          0.24608787	          0.22737116	          0.18592310	          0.05000003	          0.05000003	          0.05000002	          0.11504882	          0.10516269	          0.13032478	          0.05000005	          0.05000006	          0.05000008	          0.05000006	          0.72860417	          0.05011986	          0.05000012	          0.05000028	          0.05000009	          0.05000002	          0.32103931	          0.89878480	          0.13554420	          0.08641561	          0.15456577	          0.36981808	          0.11771193	          0.12327965	          0.12306980	          0.48959884	          0.63829181	          0.33570737	          0.48061618	          0.50086146	          0.63483652	          0.05000000	          0.25383926	          0.30403726	          0.05000000	          0.05000000	          0.05000000	          0.05177215	          0.05000003	          0.10832171	          0.05000001	          0.05000002	          0.05000008	          0.45960298	          0.12482038	          0.29915369	          0.05000001	          0.10621461	          0.09864449	          0.24250316	          0.29517507	          0.27003692	          0.19892616	          0.05061593	          0.05000011	          0.17692369	          0.23151730	          0.20826601	          0.18332337	          0.10528101	          0.10241413	          0.34680082	          0.05974268	          0.20375314	          0.05811580	          0.10471340	          0.10580608	          0.08890703	          0.05000001	          0.05000002	          0.05000004	          0.05000046	          0.05000030	          0.05000025	          0.46821047	          0.19438255	          0.21464524	          0.05000015	          0.56400602	          0.18024889	          0.08203636	          0.13829709	          0.05000000	          0.05811592	          0.05000000	          0.05000009	
          0.49668800	        -19.66903537	          4.84601743	         -1.74391804	          0.74767509	          0.86446720	          0.00225502	         -2.66072208	         -3.27030195	          8.86512642	        -12.63010129	          4.31856267	         16.48642625	         19.11321393	         47.47474729	          5.67842514	         -4.04336467	        -15.43101645	          7.69071398	         -6.00610281	          0.18125349	          2.68676488	         -5.24583225	          5.51546156	          2.47953384	        -13.49535660	         19.36510338	         42.12971949	         -0.07558415	        -14.44745475	          9.21143590	         37.48303275	          0.12190627	          0.11227038	          0.10735288	          0.21172195	          0.19561901	          0.15995913	          0.05000005	          0.05000003	          0.05000002	          0.09898236	          0.09047684	          0.19679779	          0.10240820	          0.07790866	          0.05537134	          0.05000017	          0.75778740	          0.05811572	          0.05000302	          0.05239394	          0.07851307	          0.05390325	          0.29374100	          0.88968706	          0.15325262	          0.07434792	          0.13298082	          0.31817339	          0.10606965	          0.10606959	          0.10588345	          0.42122684	          0.54915502	          0.28882617	          0.43853428	          0.46060551	          0.55481536	          0.05000000	          0.27331909	          0.30508822	          0.05000000	          0.05000000	          0.05000000	          0.05811581	          0.05811582	          0.09319503	          0.05811582	          0.05811581	          0.05811581	          0.44357499	          0.12996296	          0.28882536	          0.05000006	          0.09138185	          0.10624243	          0.33923571	          0.26425386	          0.26913891	          0.20078977	          0.05000001	          0.05006714	          0.22600654	          0.30004429	          0.25133384	          0.22028994	          0.09057862	          0.08811210	          0.60394536	          0.05139969	          0.42163659	          0.05000002	          0.09009038	          0.11283764	          0.08461088	          0.05000000	          0.05000000	          0.05000000	          0.05000000	          0.05000006	          0.05000003	          0.53090650	          0.24963767	          0.22111119	          0.21352101	          0.63725109	          0.18493701	          0.11217904	          0.12323739	          0.05000000	          0.05000010	          0.05000000	          0.05000000	
          0.50642698	        -19.68166733	          4.99447182	         -1.93663159	          0.76508551	          0.86438132	          0.00177450	         -2.44031887	         -3.49848330	          8.83995012	        -14.64549638	          2.05425554	         17.21738712	         20.70133055	         46.72026694	          6.00700151	         -3.83037552	        -15.61033809	          7.12979550	         -5.90725186	          0.21398638	          2.91244216	         -5.46367022	          5.54989862	          2.00204976	        -13.51024264	         19.38632582	         42.60964756	         -0.61618222	        -14.48365832	          8.94962858	         37.44958653	          0.10488218	          0.09659194	          0.09236116	          0.18215520	          0.16830101	          0.13762100	          0.05000003	          0.05000003	          0.05000010	          0.08515957	          0.07784186	          0.25383799	          0.08810703	          0.26696179	          0.09905121	          0.08677106	          0.77196367	          0.05000010	          0.05000024	          0.06753796	          0.06754902	          0.07851367	          0.25272038	          0.85288586	          0.13185110	          0.06754922	          0.11441018	          0.27792358	          0.09125715	          0.09125710	          0.09109695	          0.36240293	          0.47246607	          0.24849187	          0.39007445	          0.39630465	          0.47733608	          0.05000000	          0.23515039	          0.29737403	          0.05000000	          0.05000000	          0.05000000	          0.05000000	          0.05000000	          0.09047641	          0.05000000	          0.05000000	          0.05000001	          0.39570688	          0.11181379	          0.24849120	          0.05000002	          0.07862046	          0.09140581	          0.38143684	          0.42613137	          0.30998714	          0.19700125	          0.05000002	          0.06739786	          0.26052503	          0.27239149	          0.23161124	          0.20015397	          0.07792941	          0.07580733	          0.75985996	          0.15129928	          0.36275552	          0.05811573	          0.07750935	          0.09707999	          0.07279506	          0.06754894	          0.06754895	          0.06754893	          0.06754896	          0.06754880	          0.06754897	          0.45676593	          0.25985111	          0.23123857	          0.18370302	          0.55671098	          0.15911075	          0.13174845	          0.10932735	          0.05811580	          0.05000000	          0.05000000	          0.05000001	
          0.51616596	        -19.69159722	          5.15125577	         -2.10682678	          0.78251039	          0.86428436	          0.00131740	         -2.00998776	         -3.69131290	          8.83393433	        -17.00354541	         -0.35539278	         17.83486519	         22.12910219	         45.92937329	          6.28678551	         -3.50219537	        -16.17012775	          6.30897072	         -5.77609782	          0.20738402	          3.13663840	         -5.69243653	          5.55625163	          1.51688679	        -13.51532114	         19.38385028	         43.07286632	         -1.11887363	        -14.53054301	          8.76369774	         37.35323169	          0.10608433	          0.08310297	          0.07946301	          0.27662016	          0.14479796	          0.11840237	          0.05000023	          0.05000008	          0.05000003	          0.07326712	          0.06697137	          0.28027736	          0.17897279	          0.22968085	          0.08521884	          0.07465358	          0.82138883	          0.07809054	          0.05000039	          0.05810641	          0.05811587	          0.06754932	          0.25293412	          0.80878304	          0.11343823	          0.05811604	          0.09843292	          0.23911183	          0.07851318	          0.07851314	          0.07837535	          0.31179372	          0.40648665	          0.21379023	          0.33560098	          0.34096124	          0.41067660	          0.05000000	          0.20231188	          0.25584608	          0.05000001	          0.05000000	          0.05000001	          0.25068774	          0.42398595	          0.44852804	          0.19873685	          0.31907069	          0.42398593	          0.34557790	          0.16747394	          0.21959856	          0.07428940	          0.06764120	          0.07864108	          0.32816957	          0.36662255	          0.26669777	          0.23234510	          0.05000001	          0.05798616	          0.22414300	          0.43891463	          0.34121379	          0.26855419	          0.06704664	          0.06522091	          0.85439574	          0.31255871	          0.61361917	          0.05000000	          0.06668526	          0.08352289	          0.06262932	          0.05811580	          0.05811581	          0.05811579	          0.05811582	          0.05811573	          0.05811584	          0.67062057	          0.22356316	          0.19894633	          0.43967196	          0.73122031	          0.40937666	          0.15467511	          0.09664282	          0.05000000	          0.09334609	          0.05000000	          0.05000000	
